<?xml version="1.0" ?>
<!-- Uploaded to: SVG Repo, www.svgrepo.com, Generator: SVG Repo Mixer Tools -->
<svg width="800px" height="800px" viewBox="0 0 64 64" id="Layer_1" version="1.1" xml:space="preserve" xmlns="http://www.w3.org/2000/svg" xmlns:xlink="http://www.w3.org/1999/xlink">
<style type="text/css">
	.st0{fill:#FFFFFF;}
	.st1{fill:#101820;}
</style>
<g>
<g>
<circle class="st0" cx="32" cy="32" r="32"/>
</g>
<g>
<path class="st1" d="M50,46.5H19c-1.978,0-2.5-1.636-2.5-2.5c0-0.276,0.224-0.5,0.5-0.5c1.273,0,3.497-2.331,4.6-3.8    c0.094-0.126,0.243-0.2,0.4-0.2h25c0.157,0,0.306,0.074,0.4,0.2c1.103,1.469,3.327,3.8,4.6,3.8c0.276,0,0.5,0.224,0.5,0.5    C52.5,44.864,51.978,46.5,50,46.5z M17.557,44.427C17.67,44.88,18.007,45.5,19,45.5h31c0.993,0,1.33-0.619,1.443-1.074    c-1.88-0.475-4.054-3.111-4.689-3.926H22.247C21.611,41.314,19.437,43.951,17.557,44.427z"/>
</g>
<g>
<path class="st1" d="M48,36.5H22c-1.978,0-2.5-1.636-2.5-2.5c0-0.276,0.224-0.5,0.5-0.5c1.468,0,3.852-2.06,4.646-2.854    C24.74,30.553,24.868,30.5,25,30.5h20c0.132,0,0.26,0.053,0.354,0.146C46.148,31.44,48.532,33.5,50,33.5    c0.276,0,0.5,0.224,0.5,0.5C50.5,34.864,49.978,36.5,48,36.5z M20.561,34.442C20.678,34.895,21.018,35.5,22,35.5h26    c0.981,0,1.322-0.604,1.439-1.058c-1.852-0.364-4.015-2.338-4.643-2.942H25.204C24.576,32.104,22.412,34.078,20.561,34.442z"/>
</g>
<g>
<path class="st1" d="M42,16.5H26c-1.978,0-2.5-1.636-2.5-2.5c0-0.276,0.224-0.5,0.5-0.5c1.221,0,5.191-3.991,7.621-6.825    c0.167-0.196,0.455-0.233,0.666-0.084C36.103,9.262,42.658,13.5,44,13.5c0.276,0,0.5,0.224,0.5,0.5    C44.5,14.864,43.978,16.5,42,16.5z M24.549,14.396C24.655,14.853,24.985,15.5,26,15.5h16c1.007,0,1.339-0.637,1.448-1.093    c-2.582-0.724-9.503-5.449-11.364-6.739C30.717,9.235,26.722,13.662,24.549,14.396z"/>
</g>
<g>
<path class="st1" d="M49,52.5c-0.276,0-0.5-0.224-0.5-0.5v-5.5h-33V52c0,0.276-0.224,0.5-0.5,0.5s-0.5-0.224-0.5-0.5v-6    c0-0.276,0.224-0.5,0.5-0.5h34c0.276,0,0.5,0.224,0.5,0.5v6C49.5,52.276,49.276,52.5,49,52.5z"/>
</g>
<g>
<path class="st1" d="M13,52.5c-0.276,0-0.5-0.224-0.5-0.5v-4c0-0.276,0.224-0.5,0.5-0.5s0.5,0.224,0.5,0.5v4    C13.5,52.276,13.276,52.5,13,52.5z"/>
</g>
<g>
<path class="st1" d="M19,52.5c-0.276,0-0.5-0.224-0.5-0.5v-4c0-0.276,0.224-0.5,0.5-0.5s0.5,0.224,0.5,0.5v4    C19.5,52.276,19.276,52.5,19,52.5z"/>
</g>
<g>
<path class="st1" d="M51,52.5c-0.276,0-0.5-0.224-0.5-0.5v-4c0-0.276,0.224-0.5,0.5-0.5s0.5,0.224,0.5,0.5v4    C51.5,52.276,51.276,52.5,51,52.5z"/>
</g>
<g>
<path class="st1" d="M45,52.5c-0.276,0-0.5-0.224-0.5-0.5v-4c0-0.276,0.224-0.5,0.5-0.5s0.5,0.224,0.5,0.5v4    C45.5,52.276,45.276,52.5,45,52.5z"/>
</g>
<g>
<path class="st1" d="M33,52.5c-0.276,0-0.5-0.224-0.5-0.5v-3c0-0.275-0.224-0.5-0.5-0.5s-0.5,0.225-0.5,0.5v3    c0,0.276-0.224,0.5-0.5,0.5s-0.5-0.224-0.5-0.5v-3c0-0.827,0.673-1.5,1.5-1.5s1.5,0.673,1.5,1.5v3    C33.5,52.276,33.276,52.5,33,52.5z"/>
</g>
<g>
<path class="st1" d="M26,52.5c-0.276,0-0.5-0.224-0.5-0.5v-3c0-0.275-0.224-0.5-0.5-0.5s-0.5,0.225-0.5,0.5v3    c0,0.276-0.224,0.5-0.5,0.5s-0.5-0.224-0.5-0.5v-3c0-0.827,0.673-1.5,1.5-1.5s1.5,0.673,1.5,1.5v3    C26.5,52.276,26.276,52.5,26,52.5z"/>
</g>
<g>
<path class="st1" d="M40,52.5c-0.276,0-0.5-0.224-0.5-0.5v-3c0-0.275-0.224-0.5-0.5-0.5s-0.5,0.225-0.5,0.5v3    c0,0.276-0.224,0.5-0.5,0.5s-0.5-0.224-0.5-0.5v-3c0-0.827,0.673-1.5,1.5-1.5s1.5,0.673,1.5,1.5v3    C40.5,52.276,40.276,52.5,40,52.5z"/>
</g>
<g>
<path class="st1" d="M20,49.5h-8c-0.276,0-0.5-0.224-0.5-0.5s0.224-0.5,0.5-0.5h8c0.276,0,0.5,0.224,0.5,0.5S20.276,49.5,20,49.5z    "/>
</g>
<g>
<path class="st1" d="M52,49.5h-8c-0.276,0-0.5-0.224-0.5-0.5s0.224-0.5,0.5-0.5h8c0.276,0,0.5,0.224,0.5,0.5S52.276,49.5,52,49.5z    "/>
</g>
<g>
<path class="st1" d="M45,40.5H19c-0.276,0-0.5-0.224-0.5-0.5v-2c0-0.276,0.224-0.5,0.5-0.5s0.5,0.224,0.5,0.5v1.5h25V38    c0-0.276,0.224-0.5,0.5-0.5s0.5,0.224,0.5,0.5v2C45.5,40.276,45.276,40.5,45,40.5z"/>
</g>
<g>
<path class="st1" d="M19,40.5h-2c-0.276,0-0.5-0.224-0.5-0.5v-2c0-0.276,0.224-0.5,0.5-0.5s0.5,0.224,0.5,0.5v1.5h1V38    c0-0.276,0.224-0.5,0.5-0.5s0.5,0.224,0.5,0.5v2C19.5,40.276,19.276,40.5,19,40.5z"/>
</g>
<g>
<path class="st1" d="M47,40.5h-2c-0.276,0-0.5-0.224-0.5-0.5v-2c0-0.276,0.224-0.5,0.5-0.5s0.5,0.224,0.5,0.5v1.5h1V38    c0-0.276,0.224-0.5,0.5-0.5s0.5,0.224,0.5,0.5v2C47.5,40.276,47.276,40.5,47,40.5z"/>
</g>
<g>
<path class="st1" d="M43,31.5H21c-0.276,0-0.5-0.224-0.5-0.5v-2c0-0.276,0.224-0.5,0.5-0.5s0.5,0.224,0.5,0.5v1.5h21V29    c0-0.276,0.224-0.5,0.5-0.5s0.5,0.224,0.5,0.5v2C43.5,31.276,43.276,31.5,43,31.5z"/>
</g>
<g>
<path class="st1" d="M25,22.5h-2c-0.276,0-0.5-0.224-0.5-0.5v-4c0-0.276,0.224-0.5,0.5-0.5s0.5,0.224,0.5,0.5v3.5h1V18    c0-0.276,0.224-0.5,0.5-0.5s0.5,0.224,0.5,0.5v4C25.5,22.276,25.276,22.5,25,22.5z"/>
</g>
<g>
<path class="st1" d="M30,22.5h-2c-0.276,0-0.5-0.224-0.5-0.5v-4c0-0.276,0.224-0.5,0.5-0.5s0.5,0.224,0.5,0.5v3.5h1V18    c0-0.276,0.224-0.5,0.5-0.5s0.5,0.224,0.5,0.5v4C30.5,22.276,30.276,22.5,30,22.5z"/>
</g>
<g>
<path class="st1" d="M36,22.5h-2c-0.276,0-0.5-0.224-0.5-0.5v-4c0-0.276,0.224-0.5,0.5-0.5s0.5,0.224,0.5,0.5v3.5h1V18    c0-0.276,0.224-0.5,0.5-0.5s0.5,0.224,0.5,0.5v4C36.5,22.276,36.276,22.5,36,22.5z"/>
</g>
<g>
<path class="st1" d="M41,22.5h-2c-0.276,0-0.5-0.224-0.5-0.5v-4c0-0.276,0.224-0.5,0.5-0.5s0.5,0.224,0.5,0.5v3.5h1V18    c0-0.276,0.224-0.5,0.5-0.5s0.5,0.224,0.5,0.5v4C41.5,22.276,41.276,22.5,41,22.5z"/>
</g>
<g>
<path class="st1" d="M24,40.5c-0.276,0-0.5-0.224-0.5-0.5v-2c0-0.276,0.224-0.5,0.5-0.5s0.5,0.224,0.5,0.5v2    C24.5,40.276,24.276,40.5,24,40.5z"/>
</g>
<g>
<path class="st1" d="M29,40.5c-0.276,0-0.5-0.224-0.5-0.5v-2c0-0.276,0.224-0.5,0.5-0.5s0.5,0.224,0.5,0.5v2    C29.5,40.276,29.276,40.5,29,40.5z"/>
</g>
<g>
<path class="st1" d="M34,40.5c-0.276,0-0.5-0.224-0.5-0.5v-2c0-0.276,0.224-0.5,0.5-0.5s0.5,0.224,0.5,0.5v2    C34.5,40.276,34.276,40.5,34,40.5z"/>
</g>
<g>
<path class="st1" d="M39,40.5c-0.276,0-0.5-0.224-0.5-0.5v-2c0-0.276,0.224-0.5,0.5-0.5s0.5,0.224,0.5,0.5v2    C39.5,40.276,39.276,40.5,39,40.5z"/>
</g>
<g>
<path class="st1" d="M46,27.5H25c-1.978,0-2.5-1.636-2.5-2.5c0-0.276,0.224-0.5,0.5-0.5c1.526,0,5.385-2.114,6.743-2.929    C29.82,21.524,29.909,21.5,30,21.5h11c0.091,0,0.18,0.024,0.257,0.071C42.615,22.386,46.474,24.5,48,24.5    c0.276,0,0.5,0.224,0.5,0.5C48.5,25.864,47.978,27.5,46,27.5z M23.562,25.447C23.68,25.898,24.022,26.5,25,26.5h21    c0.978,0,1.319-0.601,1.438-1.053c-2.123-0.362-5.755-2.461-6.576-2.947H30.138C29.317,22.986,25.685,25.085,23.562,25.447z"/>
</g>
<g>
<path class="st1" d="M27,31.5c-0.276,0-0.5-0.224-0.5-0.5v-2c0-0.276,0.224-0.5,0.5-0.5s0.5,0.224,0.5,0.5v2    C27.5,31.276,27.276,31.5,27,31.5z"/>
</g>
<g>
<path class="st1" d="M32,31.5c-0.276,0-0.5-0.224-0.5-0.5v-2c0-0.276,0.224-0.5,0.5-0.5s0.5,0.224,0.5,0.5v2    C32.5,31.276,32.276,31.5,32,31.5z"/>
</g>
<g>
<path class="st1" d="M37,31.5c-0.276,0-0.5-0.224-0.5-0.5v-2c0-0.276,0.224-0.5,0.5-0.5s0.5,0.224,0.5,0.5v2    C37.5,31.276,37.276,31.5,37,31.5z"/>
</g>
<g>
<path class="st1" d="M26,16.5h-5c-1.978,0-2.5-1.636-2.5-2.5c0-0.276,0.224-0.5,0.5-0.5c1.351,0,8.526-4.246,12.731-6.922    c0.21-0.133,0.484-0.093,0.646,0.095c0.162,0.187,0.163,0.465,0.001,0.652c-0.947,1.104-5.467,6.272-7.83,7.071    C24.655,14.853,24.985,15.5,26,15.5c0.276,0,0.5,0.224,0.5,0.5S26.276,16.5,26,16.5z M19.553,14.41    c0.109,0.455,0.442,1.09,1.447,1.09h2.957C23.619,14.998,23.5,14.412,23.5,14c0-0.276,0.224-0.5,0.5-0.5    c0.865,0,3.107-2.001,5.206-4.176C26.082,11.225,21.5,13.889,19.553,14.41z"/>
</g>
<g>
<path class="st1" d="M25,27.5h-7c-1.978,0-2.5-1.636-2.5-2.5c0-0.276,0.224-0.5,0.5-0.5c1.526,0,5.385-2.114,6.743-2.929    C22.82,21.524,22.909,21.5,23,21.5h7c0.225,0,0.422,0.15,0.482,0.366c0.06,0.217-0.032,0.447-0.225,0.563    c-0.481,0.288-4.44,2.634-6.695,3.019C23.681,25.899,24.022,26.5,25,26.5c0.276,0,0.5,0.224,0.5,0.5S25.276,27.5,25,27.5z     M16.562,25.447C16.68,25.898,17.022,26.5,18,26.5h4.957C22.619,25.998,22.5,25.412,22.5,25c0-0.276,0.224-0.5,0.5-0.5    c1.093,0,3.384-1.085,5.094-2h-4.957C22.317,22.986,18.685,25.085,16.562,25.447z"/>
</g>
<g>
<path class="st1" d="M22,36.5h-6c-1.978,0-2.5-1.636-2.5-2.5c0-0.276,0.224-0.5,0.5-0.5c1.468,0,3.852-2.06,4.646-2.854    C18.74,30.553,18.868,30.5,19,30.5h6c0.202,0,0.385,0.122,0.462,0.309c0.078,0.187,0.035,0.402-0.108,0.545    c-0.294,0.295-2.736,2.685-4.792,3.089C20.678,34.896,21.019,35.5,22,35.5c0.276,0,0.5,0.224,0.5,0.5S22.276,36.5,22,36.5z     M14.561,34.442C14.678,34.895,15.018,35.5,16,35.5h3.957C19.619,34.998,19.5,34.412,19.5,34c0-0.276,0.224-0.5,0.5-0.5    c1.072,0,2.632-1.099,3.706-2h-4.501C18.576,32.104,16.412,34.078,14.561,34.442z"/>
</g>
<g>
<path class="st1" d="M19,46.5h-5c-1.978,0-2.5-1.636-2.5-2.5c0-0.276,0.224-0.5,0.5-0.5c1.273,0,3.497-2.331,4.6-3.8    c0.094-0.126,0.243-0.2,0.4-0.2h5c0.189,0,0.362,0.107,0.447,0.276c0.084,0.169,0.066,0.372-0.047,0.523    c-0.295,0.395-2.751,3.598-4.843,4.127C17.67,44.88,18.007,45.5,19,45.5c0.276,0,0.5,0.224,0.5,0.5S19.276,46.5,19,46.5z     M12.557,44.427C12.67,44.88,13.007,45.5,14,45.5h2.957C16.619,44.998,16.5,44.412,16.5,44c0-0.276,0.224-0.5,0.5-0.5    c1.059,0,2.775-1.612,3.958-3h-3.711C16.611,41.314,14.437,43.951,12.557,44.427z M22,40.5h0.01H22z"/>
</g>
<g>
<path class="st1" d="M21,31.5h-2c-0.276,0-0.5-0.224-0.5-0.5v-2c0-0.276,0.224-0.5,0.5-0.5s0.5,0.224,0.5,0.5v1.5h1V29    c0-0.276,0.224-0.5,0.5-0.5s0.5,0.224,0.5,0.5v2C21.5,31.276,21.276,31.5,21,31.5z"/>
</g>
<g>
<path class="st1" d="M45,31.5h-2c-0.276,0-0.5-0.224-0.5-0.5v-2c0-0.276,0.224-0.5,0.5-0.5s0.5,0.224,0.5,0.5v1.5h1V29    c0-0.276,0.224-0.5,0.5-0.5s0.5,0.224,0.5,0.5v2C45.5,31.276,45.276,31.5,45,31.5z"/>
</g>
<g>
<path class="st1" d="M52.268,18.5c-0.276,0-0.5-0.224-0.5-0.5c0-0.827-0.673-1.5-1.5-1.5c-0.534,0-1.031,0.287-1.299,0.75    c-0.138,0.239-0.443,0.32-0.683,0.183c-0.239-0.138-0.321-0.444-0.182-0.683c0.446-0.771,1.275-1.25,2.165-1.25    c1.378,0,2.5,1.121,2.5,2.5C52.768,18.276,52.544,18.5,52.268,18.5z"/>
</g>
<g>
<path class="st1" d="M52.268,18.5c-0.276,0-0.5-0.224-0.5-0.5c0-1.379,1.122-2.5,2.5-2.5c0.89,0,1.719,0.479,2.165,1.25    c0.139,0.238,0.057,0.545-0.182,0.683c-0.241,0.138-0.546,0.057-0.683-0.183c-0.268-0.463-0.766-0.75-1.3-0.75    c-0.827,0-1.5,0.673-1.5,1.5C52.768,18.276,52.544,18.5,52.268,18.5z"/>
</g>
<g>
<path class="st1" d="M53.268,18.5h-2c-0.276,0-0.5-0.224-0.5-0.5s0.224-0.5,0.5-0.5h2c0.276,0,0.5,0.224,0.5,0.5    S53.544,18.5,53.268,18.5z"/>
</g>
<g>
<path class="st1" d="M14,22.5H8c-0.276,0-0.5-0.224-0.5-0.5s0.224-0.5,0.5-0.5h6c0.276,0,0.5,0.224,0.5,0.5S14.276,22.5,14,22.5z"/>
</g>
</g>
</svg>