<?xml version="1.0" ?>
<!-- Uploaded to: SVG Repo, www.svgrepo.com, Generator: SVG Repo Mixer Tools -->
<svg width="800px" height="800px" viewBox="0 0 64 64" id="Layer_1" version="1.1" xml:space="preserve" xmlns="http://www.w3.org/2000/svg" xmlns:xlink="http://www.w3.org/1999/xlink">
<style type="text/css">
	.st0{fill:#FFFFFF;}
	.st1{fill:#101820;}
</style>
<g>
<g>
<circle class="st0" cx="32" cy="32" r="32"/>
</g>
<g>
<path class="st1" d="M54,16h-5c-0.276,0-0.5-0.224-0.5-0.5S48.724,15,49,15h5c0.276,0,0.5,0.224,0.5,0.5S54.276,16,54,16z"/>
</g>
<g>
<path class="st1" d="M23,19h-3c-0.276,0-0.5-0.224-0.5-0.5v-1c0-1.378-1.121-2.5-2.5-2.5s-2.5,1.122-2.5,2.5v1    c0,0.276-0.224,0.5-0.5,0.5s-0.5-0.224-0.5-0.5V18c0-0.551-0.448-1-1-1s-1,0.449-1,1v0.5c0,0.276-0.224,0.5-0.5,0.5H8    c-0.276,0-0.5-0.224-0.5-0.5S7.724,18,8,18h2.5c0-1.103,0.897-2,2-2c0.441,0,0.851,0.144,1.182,0.387    C14.147,15.001,15.459,14,17,14c1.93,0,3.5,1.57,3.5,3.5V18H23c0.276,0,0.5,0.224,0.5,0.5S23.276,19,23,19z"/>
</g>
<g>
<path class="st1" d="M22.999,53c-0.239,0-0.451-0.173-0.492-0.418l-0.979-5.872l-3.625-4.531l-2.974,2.087    c-0.225,0.159-0.537,0.104-0.696-0.122c-0.159-0.226-0.104-0.538,0.122-0.696l3.357-2.357c0.215-0.151,0.512-0.11,0.678,0.097l4,5    c0.053,0.067,0.089,0.146,0.103,0.23l1,6c0.046,0.272-0.139,0.53-0.411,0.575C23.055,52.998,23.026,53,22.999,53z"/>
</g>
<g>
<path class="st1" d="M15,29.4c-0.198,0-0.386-0.119-0.464-0.314c-0.103-0.256,0.021-0.547,0.278-0.65l0.855-0.342l1.914-2.871    c0.036-0.055,0.084-0.102,0.139-0.139l3-2C20.805,23.029,20.901,23,21,23h2c0.133,0,0.26,0.053,0.354,0.146l1,1    c0.195,0.195,0.195,0.512,0,0.707L24.207,25H26c0.133,0,0.26,0.053,0.354,0.146L27,25.793l1.646-1.646    C28.74,24.053,28.867,24,29,24h3c0.276,0,0.5,0.224,0.5,0.5S32.276,25,32,25h-2.793l-1.854,1.854    c-0.195,0.195-0.512,0.195-0.707,0L25.793,26H23c-0.202,0-0.385-0.122-0.462-0.309s-0.034-0.402,0.108-0.545l0.646-0.646l-0.5-0.5    h-1.642l-2.791,1.86l-1.944,2.917c-0.056,0.084-0.137,0.149-0.23,0.187l-1,0.4C15.125,29.389,15.062,29.4,15,29.4z"/>
</g>
<g>
<path class="st1" d="M15.5,41c-0.183,0-0.359-0.101-0.447-0.276l-0.5-1c-0.097-0.192-0.059-0.425,0.094-0.577l0.568-0.569    l-2.492-1.662c-0.104-0.069-0.178-0.174-0.208-0.295l-1-4c-0.042-0.17,0.008-0.351,0.132-0.475L11.793,32H11    c-0.276,0-0.5-0.224-0.5-0.5v-1c0-0.205,0.124-0.388,0.314-0.464l2-0.8c0.255-0.104,0.547,0.022,0.649,0.279    c0.103,0.256-0.021,0.547-0.278,0.65L11.5,30.838V31H13c0.202,0,0.385,0.122,0.462,0.309s0.034,0.402-0.108,0.545l-0.8,0.8    l0.885,3.538l2.839,1.893c0.125,0.083,0.205,0.218,0.221,0.367c0.015,0.149-0.038,0.297-0.145,0.403l-0.745,0.745l0.339,0.678    c0.123,0.247,0.023,0.547-0.224,0.671C15.651,40.983,15.575,41,15.5,41z"/>
</g>
<g>
<path class="st1" d="M56,32c-0.128,0-0.256-0.049-0.354-0.146l-4-4c-0.195-0.195-0.195-0.512,0-0.707l0.673-0.673l-2.271-2.648    c-0.18-0.209-0.155-0.525,0.055-0.705c0.209-0.178,0.523-0.155,0.705,0.055l2.571,3c0.17,0.198,0.158,0.494-0.026,0.679    L52.707,27.5l3.646,3.646c0.195,0.195,0.195,0.512,0,0.707C56.256,31.951,56.128,32,56,32z"/>
</g>
<g>
<path class="st1" d="M31,29c-0.04,0-0.08-0.005-0.121-0.015c-0.269-0.067-0.431-0.338-0.364-0.606l1-4    c0.022-0.088,0.067-0.168,0.132-0.232l2-2C33.74,22.053,33.867,22,34,22h3c0.133,0,0.26,0.053,0.354,0.146L38.207,23h0.484    l1.861-3.724C40.638,19.107,40.811,19,41,19h6c0.146,0,0.284,0.064,0.38,0.175l2,2.333c0.18,0.209,0.155,0.525-0.055,0.705    c-0.207,0.18-0.523,0.156-0.705-0.055L46.771,20h-5.462l-1.861,3.724C39.362,23.893,39.189,24,39,24h-1    c-0.133,0-0.26-0.053-0.354-0.146L36.793,23h-2.586l-1.756,1.756l-0.966,3.865C31.429,28.849,31.225,29,31,29z"/>
</g>
<g>
<path class="st1" d="M56,37c-0.128,0-0.256-0.049-0.354-0.146l-3-3C52.553,33.76,52.5,33.633,52.5,33.5V33H52    c-0.133,0-0.26-0.053-0.354-0.146l-4-4c-0.195-0.195-0.195-0.512,0-0.707s0.512-0.195,0.707,0L52.207,32H53    c0.276,0,0.5,0.224,0.5,0.5v0.793l2.854,2.854c0.195,0.195,0.195,0.512,0,0.707C56.256,36.951,56.128,37,56,37z"/>
</g>
<g>
<path class="st1" d="M38,31h-2c-0.133,0-0.26-0.053-0.354-0.146l-2-2c-0.195-0.195-0.195-0.512,0-0.707s0.512-0.195,0.707,0    L36.207,30h1.586l2.854-2.854c0.152-0.152,0.385-0.189,0.577-0.094l1.678,0.839l1.745-1.745c0.144-0.144,0.36-0.187,0.545-0.108    c0.187,0.077,0.309,0.26,0.309,0.462v1.793l1,1l2.146-2.146c0.195-0.195,0.512-0.195,0.707,0s0.195,0.512,0,0.707l-2.5,2.5    c-0.195,0.195-0.512,0.195-0.707,0l-1.5-1.5C44.553,28.76,44.5,28.633,44.5,28.5v-0.793l-1.146,1.146    c-0.151,0.152-0.385,0.19-0.577,0.094l-1.678-0.839l-2.745,2.745C38.26,30.947,38.133,31,38,31z"/>
</g>
<g>
<path class="st1" d="M32,44c-0.225,0-0.429-0.151-0.485-0.379c-0.066-0.268,0.096-0.539,0.364-0.606l7.444-1.861l-1.749-4.373    l-0.928-0.927c-0.195-0.195-0.195-0.512,0-0.707s0.512-0.195,0.707,0l1,1c0.048,0.048,0.086,0.105,0.11,0.168l2,5    c0.054,0.134,0.047,0.285-0.019,0.413s-0.184,0.223-0.324,0.257l-8,2C32.081,43.995,32.04,44,32,44z"/>
</g>
<g>
<path class="st1" d="M33,43.75c-0.276,0-0.5-0.224-0.5-0.5V40.5c0-0.167,0.084-0.323,0.223-0.416L34.349,39H32    c-0.276,0-0.5-0.224-0.5-0.5S31.724,38,32,38h4c0.221,0,0.415,0.144,0.479,0.355s-0.018,0.439-0.201,0.561L33.5,40.768v2.482    C33.5,43.526,33.276,43.75,33,43.75z"/>
</g>
<g>
<path class="st1" d="M12.999,32c-0.233,0-0.441-0.164-0.489-0.402c-0.055-0.271,0.121-0.534,0.393-0.588l5-1L20,30    c0.276,0,0.5,0.224,0.5,0.5S20.276,31,20,31h-2l-4.902,0.99C13.065,31.997,13.032,32,12.999,32z"/>
</g>
<g>
<path class="st1" d="M18,37h-5c-0.276,0-0.5-0.224-0.5-0.5S12.724,36,13,36h4.882l1.895-0.947C19.846,35.018,19.923,35,20,35h3    c0.276,0,0.5,0.224,0.5,0.5S23.276,36,23,36h-2.882l-1.895,0.947C18.154,36.982,18.077,37,18,37z"/>
</g>
<g>
<path class="st1" d="M19,40.5c-0.096,0-0.192-0.027-0.277-0.084c-0.229-0.153-0.292-0.463-0.139-0.693l0.772-1.159l-1.71-1.71    c-0.195-0.195-0.195-0.512,0-0.707s0.512-0.195,0.707,0l2,2c0.169,0.168,0.194,0.433,0.063,0.631l-1,1.5    C19.319,40.422,19.161,40.5,19,40.5z"/>
</g>
<g>
<path class="st1" d="M23,41c-0.096,0-0.192-0.027-0.277-0.084l-3-2c-0.229-0.153-0.292-0.463-0.139-0.693    c0.154-0.23,0.466-0.291,0.693-0.139l3,2c0.229,0.153,0.292,0.463,0.139,0.693C23.319,40.922,23.161,41,23,41z"/>
</g>
<g>
<path class="st1" d="M20,36c-0.161,0-0.319-0.078-0.416-0.223L17.732,33H12c-0.276,0-0.5-0.224-0.5-0.5S11.724,32,12,32h6    c0.167,0,0.323,0.083,0.416,0.223l2,3c0.153,0.23,0.091,0.54-0.139,0.693C20.192,35.973,20.096,36,20,36z"/>
</g>
<g>
<path class="st1" d="M16,29c-0.193,0-0.378-0.113-0.46-0.303c-0.108-0.253,0.009-0.547,0.263-0.656l7-3    c0.252-0.108,0.547,0.008,0.657,0.263c0.108,0.253-0.009,0.547-0.263,0.656l-7,3C16.133,28.987,16.066,29,16,29z"/>
</g>
<g>
<path class="st1" d="M28.453,43c-0.236,0-0.447-0.169-0.491-0.411l-1.426-7.846l-3.89-3.89c-0.152-0.152-0.19-0.385-0.094-0.577    c0.097-0.192,0.308-0.304,0.518-0.271l7,1c0.188,0.027,0.344,0.157,0.404,0.337c0.06,0.18,0.013,0.378-0.121,0.512l-2.814,2.815    l1.407,7.742c0.049,0.271-0.131,0.532-0.402,0.581C28.514,42.998,28.483,43,28.453,43z M24.414,31.207L27,33.793l1.939-1.939    L24.414,31.207z"/>
</g>
<g>
<path class="st1" d="M23,42c-0.276,0-0.5-0.224-0.5-0.5v-11c0-0.133,0.053-0.26,0.146-0.354l4-4    c0.151-0.153,0.385-0.189,0.577-0.094l4,2c0.223,0.111,0.329,0.369,0.251,0.605l-0.902,2.707l1.781,1.782    C32.447,33.24,32.5,33.367,32.5,33.5V35h4.293l1.5-1.5l-2.646-2.646c-0.195-0.195-0.195-0.512,0-0.707s0.512-0.195,0.707,0l3,3    c0.195,0.195,0.195,0.512,0,0.707l-2,2C37.26,35.947,37.133,36,37,36h-5c-0.276,0-0.5-0.224-0.5-0.5v-1.793l-1.854-1.854    c-0.134-0.134-0.181-0.332-0.121-0.512l0.863-2.588l-3.29-1.645L23.5,30.707V41.5C23.5,41.776,23.276,42,23,42z"/>
</g>
<g>
<path class="st1" d="M33,41h-3c-0.276,0-0.5-0.224-0.5-0.5S29.724,40,30,40h3c0.276,0,0.5,0.224,0.5,0.5S33.276,41,33,41z"/>
</g>
<g>
<path class="st1" d="M40,42c-0.104,0-0.21-0.033-0.3-0.1l-4-3c-0.221-0.166-0.266-0.479-0.101-0.7c0.167-0.221,0.48-0.265,0.7-0.1    l4,3c0.221,0.166,0.266,0.479,0.101,0.7C40.302,41.931,40.151,42,40,42z"/>
</g>
<g>
<path class="st1" d="M32,41c-0.276,0-0.5-0.224-0.5-0.5v-5c0-0.276,0.224-0.5,0.5-0.5s0.5,0.224,0.5,0.5v5    C32.5,40.776,32.276,41,32,41z"/>
</g>
<g>
<path class="st1" d="M41,28c-0.183,0-0.359-0.101-0.447-0.276l-2-4c-0.123-0.247-0.023-0.547,0.224-0.671    c0.247-0.123,0.547-0.024,0.671,0.224l2,4c0.123,0.247,0.023,0.547-0.224,0.671C41.151,27.983,41.075,28,41,28z"/>
</g>
<g>
<path class="st1" d="M48,25h-3c-0.054,0-0.107-0.009-0.158-0.026l-3-1c-0.162-0.054-0.285-0.187-0.327-0.353l-1-4    c-0.066-0.268,0.096-0.539,0.364-0.606c0.262-0.069,0.539,0.095,0.606,0.364l0.934,3.733L45.081,24H48c0.276,0,0.5,0.224,0.5,0.5    S48.276,25,48,25z"/>
</g>
<g>
<path class="st1" d="M45,27c-0.276,0-0.5-0.224-0.5-0.5v-2c0-0.276,0.224-0.5,0.5-0.5s0.5,0.224,0.5,0.5v2    C45.5,26.776,45.276,27,45,27z"/>
</g>
<g>
<path class="st1" d="M40,26c-0.128,0-0.256-0.049-0.354-0.146c-0.195-0.195-0.195-0.512,0-0.707l2-2    c0.195-0.195,0.512-0.195,0.707,0s0.195,0.512,0,0.707l-2,2C40.256,25.951,40.128,26,40,26z"/>
</g>
<g>
<path class="st1" d="M53,33c-0.276,0-0.5-0.224-0.5-0.5v-1c0-0.276,0.224-0.5,0.5-0.5s0.5,0.224,0.5,0.5v1    C53.5,32.776,53.276,33,53,33z"/>
</g>
<g>
<path class="st1" d="M38,31c-0.161,0-0.319-0.078-0.416-0.223l-2-3C35.529,27.695,35.5,27.599,35.5,27.5v-2    c0-0.133,0.053-0.26,0.146-0.354l2-2c0.195-0.195,0.512-0.195,0.707,0s0.195,0.512,0,0.707L36.5,25.707v1.642l1.916,2.874    c0.153,0.23,0.091,0.54-0.139,0.693C38.192,30.973,38.096,31,38,31z"/>
</g>
<g>
<path class="st1" d="M36,26c-0.096,0-0.192-0.027-0.277-0.084l-3-2c-0.229-0.153-0.292-0.463-0.139-0.693    c0.153-0.23,0.465-0.291,0.693-0.139l3,2c0.229,0.153,0.292,0.463,0.139,0.693C36.319,25.922,36.161,26,36,26z"/>
</g>
<g>
<path class="st1" d="M45,53c-0.128,0-0.256-0.049-0.354-0.146L42.793,51H35c-0.133,0-0.26-0.053-0.354-0.146l-3.942-3.942    L24.882,44H19.6c-0.276,0-0.5-0.224-0.5-0.5s0.224-0.5,0.5-0.5H25c0.077,0,0.154,0.018,0.224,0.053l6,3    c0.048,0.024,0.092,0.056,0.13,0.094L35.207,50H43c0.133,0,0.26,0.053,0.354,0.146l2,2c0.195,0.195,0.195,0.512,0,0.707    C45.256,52.951,45.128,53,45,53z"/>
</g>
<g>
<path class="st1" d="M39,49c-0.276,0-0.5-0.224-0.5-0.5v-1.793l-3.653-3.653c-0.195-0.195-0.195-0.512,0-0.707    s0.512-0.195,0.707,0l3.8,3.8C39.447,46.24,39.5,46.367,39.5,46.5v2C39.5,48.776,39.276,49,39,49z"/>
</g>
<g>
<path class="st1" d="M50,43c-0.276,0-0.5-0.224-0.5-0.5v-1.849L47.732,38h-3.651l-2.923,0.974    c-0.26,0.089-0.545-0.054-0.633-0.316c-0.087-0.262,0.055-0.545,0.316-0.632l3-1C43.893,37.009,43.946,37,44,37h4    c0.167,0,0.323,0.083,0.416,0.223l2,3c0.055,0.082,0.084,0.179,0.084,0.277v2C50.5,42.776,50.276,43,50,43z"/>
</g>
<g>
<path class="st1" d="M56,41c-0.053,0-0.105-0.008-0.158-0.026L53,40.027l-2.842,0.947c-0.263,0.088-0.545-0.053-0.633-0.316    c-0.087-0.262,0.055-0.545,0.316-0.632l3-1c0.104-0.034,0.213-0.034,0.316,0l3,1c0.262,0.087,0.403,0.37,0.316,0.632    C56.404,40.868,56.209,41,56,41z"/>
</g>
<g>
<path class="st1" d="M38.999,44c-0.253,0-0.471-0.192-0.496-0.45c-0.028-0.275,0.173-0.52,0.447-0.547l10-1L56,42    c0.276,0,0.5,0.224,0.5,0.5S56.276,43,56,43h-7l-9.95,0.998C39.033,43.999,39.016,44,38.999,44z"/>
</g>
<g>
<path class="st1" d="M11,36H8c-0.276,0-0.5-0.224-0.5-0.5S7.724,35,8,35h3c0.276,0,0.5,0.224,0.5,0.5S11.276,36,11,36z"/>
</g>
<g>
<path class="st1" d="M18,49c-0.13,0-0.258-0.05-0.354-0.146l-3-3c-0.064-0.064-0.109-0.145-0.132-0.232l-0.944-3.777l-1.472-0.736    l-3.745,3.745c-0.195,0.195-0.512,0.195-0.707,0s-0.195-0.512,0-0.707l4-4c0.151-0.152,0.384-0.19,0.577-0.094l2,1    c0.131,0.065,0.226,0.185,0.262,0.326l0.966,3.865l2.647,2.647l3.678-1.839c0.248-0.122,0.547-0.023,0.671,0.224    c0.123,0.247,0.023,0.547-0.224,0.671l-4,2C18.152,48.983,18.076,49,18,49z"/>
</g>
<g>
<path class="st1" d="M11,53c-0.276,0-0.5-0.224-0.5-0.5v-2c0-0.114,0.039-0.224,0.109-0.313l4-5    c0.174-0.215,0.487-0.249,0.703-0.078c0.216,0.173,0.25,0.487,0.078,0.703L11.5,50.675V52.5C11.5,52.776,11.276,53,11,53z"/>
</g>
<g>
<path class="st1" d="M11,51c-0.096,0-0.192-0.027-0.277-0.084l-3-2c-0.229-0.153-0.292-0.463-0.139-0.693    c0.154-0.231,0.465-0.29,0.693-0.139l3,2c0.229,0.153,0.292,0.463,0.139,0.693C11.319,50.922,11.161,51,11,51z"/>
</g>
<g>
<path class="st1" d="M16,53c-0.128,0-0.256-0.049-0.354-0.146c-0.195-0.195-0.195-0.512,0-0.707l1.854-1.854V48.5    c0-0.276,0.224-0.5,0.5-0.5s0.5,0.224,0.5,0.5v2c0,0.133-0.053,0.26-0.146,0.354l-2,2C16.256,52.951,16.128,53,16,53z"/>
</g>
<g>
<path class="st1" d="M35,51h-5c-0.276,0-0.5-0.224-0.5-0.5S29.724,50,30,50h5c0.276,0,0.5,0.224,0.5,0.5S35.276,51,35,51z"/>
</g>
<g>
<path class="st1" d="M45,47c-0.128,0-0.256-0.049-0.354-0.146l-1-1c-0.195-0.195-0.195-0.512,0-0.707s0.512-0.195,0.707,0    L45,45.793l0.646-0.646c0.195-0.195,0.512-0.195,0.707,0s0.195,0.512,0,0.707l-1,1C45.256,46.951,45.128,47,45,47z"/>
</g>
<g>
<path class="st1" d="M52,50c-0.128,0-0.256-0.049-0.354-0.146l-1-1c-0.195-0.195-0.195-0.512,0-0.707s0.512-0.195,0.707,0    L52,48.793l0.646-0.646c0.195-0.195,0.512-0.195,0.707,0s0.195,0.512,0,0.707l-1,1C52.256,49.951,52.128,50,52,50z"/>
</g>
<g>
<path class="st1" d="M39.732,10c-0.276,0-0.5-0.224-0.5-0.5c0-0.827-0.673-1.5-1.5-1.5c-0.534,0-1.032,0.287-1.3,0.75    c-0.138,0.239-0.445,0.321-0.683,0.182c-0.239-0.138-0.321-0.444-0.183-0.683C36.013,7.479,36.843,7,37.732,7    c1.379,0,2.5,1.122,2.5,2.5C40.232,9.776,40.009,10,39.732,10z"/>
</g>
<g>
<path class="st1" d="M39.732,10c-0.276,0-0.5-0.224-0.5-0.5c0-1.378,1.121-2.5,2.5-2.5c0.89,0,1.72,0.479,2.165,1.249    c0.139,0.239,0.057,0.545-0.183,0.683C43.479,9.07,43.17,8.989,43.032,8.75C42.765,8.287,42.267,8,41.732,8    c-0.827,0-1.5,0.673-1.5,1.5C40.232,9.776,40.009,10,39.732,10z"/>
</g>
<g>
<path class="st1" d="M40.732,10h-2c-0.276,0-0.5-0.224-0.5-0.5s0.224-0.5,0.5-0.5h2c0.276,0,0.5,0.224,0.5,0.5    S41.009,10,40.732,10z"/>
</g>
</g>
</svg>