<?xml version="1.0" standalone="no"?>
<!DOCTYPE svg PUBLIC "-//W3C//DTD SVG 20010904//EN"
 "http://www.w3.org/TR/2001/REC-SVG-20010904/DTD/svg10.dtd">
<svg version="1.0" xmlns="http://www.w3.org/2000/svg"
 width="500.000000pt" height="500.000000pt" viewBox="0 0 500.000000 500.000000"
 preserveAspectRatio="xMidYMid meet">

<g transform="translate(0.000000,500.000000) scale(0.100000,-0.100000)"
fill="#000000" stroke="none">
<path d="M2315 4571 c-11 -5 -27 -17 -36 -27 -10 -11 -82 -181 -162 -379 -80
-198 -200 -495 -267 -660 -322 -796 -520 -1297 -520 -1318 0 -12 38 -79 85
-149 64 -97 92 -129 112 -134 14 -4 149 -4 300 -1 160 3 273 2 273 -3 0 -11
-86 -206 -210 -475 -51 -110 -142 -308 -202 -440 -60 -132 -130 -284 -155
-337 -60 -132 -57 -148 42 -194 54 -26 79 -33 100 -28 33 8 346 315 1150 1124
870 877 985 997 985 1032 0 20 -110 208 -160 274 -40 53 -47 54 -317 54 -138
0 -254 4 -257 9 -5 7 233 386 627 999 114 176 137 219 137 250 0 28 -22 78
-90 202 -49 91 -101 175 -115 188 l-26 22 -637 -1 c-350 0 -646 -4 -657 -8z
m1265 -78 c-36 -61 -537 -878 -631 -1030 -239 -384 -340 -557 -337 -577 l3
-21 480 -5 c264 -3 479 -9 478 -13 -3 -17 -454 -535 -753 -867 -53 -58 -203
-226 -335 -375 -234 -264 -701 -776 -843 -925 l-72 -75 33 75 c19 41 73 158
120 260 238 517 493 1074 529 1158 34 79 38 98 29 118 -9 21 -17 24 -66 24
-55 0 -495 -24 -715 -39 -63 -4 -116 -7 -118 -5 -2 1 71 186 161 410 90 225
170 427 177 449 7 22 16 45 20 50 5 6 133 321 285 700 153 380 282 696 288
704 6 7 19 16 29 20 9 3 296 5 638 3 l622 -2 -22 -37z m151 -192 c45 -85 67
-137 61 -143 -6 -6 -27 21 -58 76 -27 48 -64 110 -82 138 -25 39 -32 58 -27
77 6 25 7 26 21 6 8 -11 47 -80 85 -154z m-121 48 c0 -14 -17 -10 -23 5 -4 10
-1 13 9 9 7 -3 14 -9 14 -14z m-10 -44 c0 -12 18 -85 41 -161 22 -77 41 -144
42 -149 1 -19 -35 -65 -46 -58 -6 4 -7 1 -3 -6 5 -7 1 -20 -7 -29 -8 -9 -23
-34 -34 -55 l-19 -39 -76 109 c-113 162 -107 143 -69 202 18 28 36 49 40 47 4
-3 7 3 7 13 0 9 22 51 49 94 38 60 51 74 62 66 7 -6 13 -22 13 -34z m-210
-470 c30 -49 64 -104 77 -122 l24 -31 -57 -86 c-57 -84 -58 -85 -78 -68 -21
17 -21 17 -2 -5 20 -25 43 17 -213 -388 -99 -156 -140 -215 -150 -215 -4 0
-38 59 -74 131 l-67 130 22 32 c13 18 31 47 42 67 34 64 83 130 90 123 4 -4 4
0 0 10 -12 33 11 16 41 -30 17 -26 32 -52 34 -57 2 -6 20 -31 39 -56 43 -56
37 -34 -29 107 l-50 106 37 61 c51 83 70 107 79 98 4 -4 5 0 3 8 -6 16 18 70
30 70 4 0 29 -32 56 -70 53 -75 73 -96 83 -87 3 4 -9 23 -26 43 -18 20 -37 47
-43 60 -6 13 -14 24 -17 24 -4 0 -15 13 -24 30 -17 29 -17 30 9 69 15 23 31
38 37 34 7 -4 7 -8 -2 -11 -8 -3 -9 -7 -3 -11 5 -3 12 -17 16 -31 6 -25 6 -25
-6 -2 -14 27 -34 23 -31 -7 2 -11 -2 -21 -7 -21 -6 0 -10 5 -10 12 0 6 -2 9
-5 6 -3 -3 -3 -13 1 -22 4 -12 10 -14 19 -6 6 5 15 6 20 2 4 -4 2 4 -4 16 -7
13 -10 27 -6 30 3 3 8 -4 12 -16 3 -12 10 -22 15 -22 5 0 6 -4 3 -10 -3 -5 -2
-10 4 -10 19 0 22 19 7 55 -8 19 -11 35 -6 35 4 0 11 -6 13 -12 4 -10 6 -10 6
0 1 7 -5 15 -13 18 -20 8 -13 56 14 95 13 17 26 27 29 22 4 -4 31 -48 61 -98z
m-529 -832 c21 -46 35 -83 33 -83 -8 0 -84 166 -83 181 0 10 2 10 6 -1 3 -8
23 -52 44 -97z m-66 -33 c14 -27 22 -50 18 -50 -12 0 -65 100 -53 100 5 0 21
-22 35 -50z m-61 -48 c-34 -4 -38 1 -24 29 l12 22 19 -24 c18 -24 18 -24 -7
-27z m963 -231 l65 -103 -28 -29 c-26 -27 -44 -30 -44 -8 0 6 4 8 9 4 5 -3 12
-1 16 5 3 5 2 10 -4 10 -6 0 -8 7 -5 15 4 8 1 22 -6 30 -6 8 -10 18 -7 22 3 4
-7 23 -22 41 l-28 32 24 -92 c21 -86 23 -128 4 -128 -8 0 -57 129 -68 177 -3
12 2 32 10 44 14 19 14 24 1 45 -16 23 -11 48 8 42 6 -2 40 -50 75 -107z
m-141 -195 l46 -79 -59 -61 c-32 -33 -60 -63 -62 -66 -2 -3 -6 0 -8 6 -2 6
-28 49 -58 95 -30 46 -55 88 -55 92 0 5 26 38 57 73 l57 65 18 -23 c10 -13 38
-58 64 -102z m-195 -215 c36 -78 37 -76 -130 -245 -84 -85 -158 -154 -165
-153 -6 1 -10 -4 -8 -11 2 -12 -226 -252 -241 -252 -4 0 -17 21 -28 47 -11 27
-28 63 -36 82 -17 34 -8 69 16 63 6 -1 10 2 9 6 -3 9 130 166 185 220 l35 32
41 -69 c51 -87 68 -99 40 -29 -47 117 -55 149 -39 162 9 6 53 54 100 106 46
52 102 114 124 138 l40 43 18 -48 c11 -26 28 -68 39 -92z m-1256 -160 c4 -25
10 -68 16 -94 5 -27 7 -53 3 -58 -3 -5 -25 -9 -49 -9 l-44 0 -3 98 -3 97 -35
-3 c-19 -1 -50 -5 -67 -8 l-33 -5 0 -77 c0 -42 -4 -82 -8 -88 -4 -7 -70 -14
-172 -18 -153 -7 -167 -6 -181 11 -30 34 -109 153 -109 163 0 5 26 10 58 11
31 0 152 7 267 14 116 7 242 12 282 12 l72 0 6 -46z m105 43 c0 -3 -11 -29
-24 -57 -12 -29 -25 -59 -28 -67 -5 -15 -20 29 -34 98 l-6 32 46 0 c25 0 46
-3 46 -6z m515 -526 c15 -42 25 -82 23 -88 -2 -6 -18 33 -35 86 -38 114 -28
115 12 2z m-59 -68 c24 -73 25 -100 4 -100 -6 0 -8 5 -5 10 3 6 1 10 -5 10 -6
0 -9 -8 -6 -18 5 -13 -61 -85 -268 -291 l-274 -273 -35 54 -34 53 40 45 c22
25 72 79 110 120 38 41 78 86 90 100 117 133 172 190 183 190 8 0 14 -4 14 -9
0 -15 31 -83 36 -79 2 3 -2 34 -10 69 -15 62 -15 64 7 89 65 75 112 119 120
111 4 -4 19 -41 33 -81z m-648 -748 c-2 -4 -48 -50 -103 -103 l-100 -95 -32
36 -33 37 53 61 c28 33 58 59 65 56 7 -2 11 0 8 5 -3 5 15 32 40 60 l47 52 29
-51 c16 -28 28 -54 26 -58z m-275 -211 l26 -39 -25 -23 c-24 -23 -24 -23 -43
-3 -30 32 -35 63 -15 85 23 26 28 25 57 -20z m-129 -106 c11 -8 15 -15 10 -15
-6 0 -19 7 -30 15 -10 8 -14 14 -9 14 6 0 19 -6 29 -14z"/>
<path d="M3468 4408 c-104 -148 -162 -239 -392 -613 -107 -173 -149 -246 -145
-250 10 -9 268 370 405 595 98 160 187 321 181 326 -2 3 -25 -23 -49 -58z"/>
<path d="M2805 3332 c-165 -255 -306 -484 -301 -489 3 -3 11 -3 18 0 27 10
369 579 356 592 -2 2 -35 -44 -73 -103z"/>
<path d="M3424 2761 c-53 -40 -292 -305 -699 -776 -211 -245 -256 -297 -530
-605 -222 -251 -454 -516 -474 -545 -40 -54 160 151 398 410 309 337 420 462
706 790 115 132 236 272 270 310 34 39 94 108 135 155 40 47 111 129 157 183
47 54 83 100 81 102 -2 3 -22 -8 -44 -24z"/>
<path d="M2025 2299 c-49 -4 -182 -15 -295 -24 -223 -18 -305 -33 -185 -34 68
-1 351 11 589 25 119 7 120 7 97 25 -25 21 -54 22 -206 8z"/>
<path d="M3457 4114 c-3 -5 1 -17 8 -27 7 -10 16 -14 19 -9 3 5 -1 17 -8 27
-7 10 -15 14 -19 9z"/>
<path d="M3587 3910 c3 -11 7 -20 9 -20 2 0 4 9 4 20 0 11 -4 20 -9 20 -5 0
-7 -9 -4 -20z"/>
<path d="M3236 3723 c-3 -3 4 -14 16 -25 24 -20 31 -19 22 5 -6 17 -29 29 -38
20z"/>
<path d="M3330 3700 c0 -5 5 -10 10 -10 6 0 10 5 10 10 0 6 -4 10 -10 10 -5 0
-10 -4 -10 -10z"/>
<path d="M3360 3684 c0 -13 18 -39 24 -34 2 3 -2 14 -10 24 -8 11 -14 16 -14
10z"/>
<path d="M3171 3624 c0 -11 3 -14 6 -6 3 7 2 16 -1 19 -3 4 -6 -2 -5 -13z"/>
<path d="M3290 3629 c0 -5 5 -7 10 -4 6 3 10 8 10 11 0 2 -4 4 -10 4 -5 0 -10
-5 -10 -11z"/>
<path d="M3380 3625 c0 -8 5 -15 11 -15 5 0 7 -4 4 -10 -3 -5 -2 -10 3 -10 6
0 13 7 16 16 3 8 2 12 -4 9 -6 -3 -10 1 -10 9 0 9 -4 16 -10 16 -5 0 -10 -7
-10 -15z"/>
<path d="M3320 3609 c0 -5 5 -7 10 -4 6 3 10 8 10 11 0 2 -4 4 -10 4 -5 0 -10
-5 -10 -11z"/>
<path d="M2895 3190 c-19 -8 -19 -9 2 -9 12 -1 27 -9 32 -18 6 -10 11 -13 11
-7 0 23 -25 42 -45 34z"/>
<path d="M3720 2589 c0 -11 4 -18 10 -14 5 3 7 12 3 20 -7 21 -13 19 -13 -6z"/>
<path d="M3413 2539 c-7 -10 -7 -24 3 -49 7 -21 13 -27 13 -16 1 13 6 17 21
13 26 -7 25 1 -3 37 -18 23 -25 26 -34 15z m17 -42 c-10 -9 -12 -8 -7 6 4 9 2
17 -4 17 -6 0 -7 5 -3 11 5 8 10 6 16 -6 7 -12 6 -21 -2 -28z"/>
<path d="M3510 2416 c0 -10 4 -15 9 -12 5 4 12 0 14 -6 4 -8 6 -9 6 -2 1 6 -6
17 -14 24 -12 10 -15 9 -15 -4z"/>
<path d="M3460 2412 c0 -5 7 -16 16 -23 14 -12 16 -11 13 5 -4 20 -29 35 -29
18z"/>
<path d="M3515 2370 c-4 -6 -10 -8 -15 -5 -5 3 -12 0 -16 -6 -4 -7 -3 -9 4 -5
5 3 13 0 15 -6 4 -10 6 -10 6 0 1 7 5 11 9 8 5 -3 9 1 9 9 0 18 -3 19 -12 5z"/>
<path d="M2992 2016 c7 -8 15 -12 17 -11 5 6 -10 25 -20 25 -5 0 -4 -6 3 -14z"/>
<path d="M2781 1800 c-12 -7 -12 -13 -1 -40 9 -21 16 -27 20 -19 6 9 9 8 12
-2 3 -8 3 0 0 16 -6 43 -15 56 -31 45z m17 -35 c-3 -3 -9 2 -12 12 -6 14 -5
15 5 6 7 -7 10 -15 7 -18z"/>
<path d="M1785 2120 c-3 -5 -2 -18 4 -27 5 -9 7 -41 4 -70 -5 -49 -4 -53 16
-53 13 0 25 9 31 23 l9 22 0 -22 c1 -13 4 -23 9 -23 4 0 6 36 4 80 l-4 80 -33
0 c-19 0 -37 -4 -40 -10z m65 -56 c0 -22 -16 -17 -17 6 -1 11 2 18 8 15 5 -4
9 -13 9 -21z m-30 -36 c0 -19 -2 -20 -10 -8 -13 19 -13 30 0 30 6 0 10 -10 10
-22z"/>
<path d="M1500 2075 c0 -30 22 -76 45 -95 13 -11 15 -10 9 4 -9 23 5 20 26 -6
l19 -23 -2 22 c0 12 -5 19 -9 17 -4 -3 -7 5 -5 17 1 12 -5 24 -13 27 -13 5
-13 3 0 -13 13 -16 13 -18 0 -13 -8 2 -15 11 -16 19 -2 40 -17 69 -35 69 -14
0 -19 -7 -19 -25z"/>
<path d="M2609 1627 c-15 -21 -15 -23 0 -23 10 0 17 9 17 23 2 28 3 28 -17 0z"/>
<path d="M2652 1560 c0 -14 2 -19 5 -12 2 6 2 18 0 25 -3 6 -5 1 -5 -13z"/>
<path d="M2440 1436 c0 -2 8 -10 18 -17 15 -13 16 -12 3 4 -13 16 -21 21 -21
13z"/>
<path d="M2380 1373 c0 -5 5 -15 10 -23 7 -12 9 -10 7 8 -1 19 -17 33 -17 15z"/>
<path d="M2271 1234 c0 -11 3 -14 6 -6 3 7 2 16 -1 19 -3 4 -6 -2 -5 -13z"/>
<path d="M2246 1082 c-3 -5 1 -9 9 -9 8 0 12 4 9 9 -3 4 -7 8 -9 8 -2 0 -6 -4
-9 -8z"/>
<path d="M2094 1049 c-3 -6 -2 -15 3 -20 5 -5 9 -1 9 11 0 23 -2 24 -12 9z"/>
<path d="M2126 987 c3 -10 9 -15 12 -12 3 3 0 11 -7 18 -10 9 -11 8 -5 -6z"/>
<path d="M1896 787 c3 -10 9 -15 12 -12 3 3 0 11 -7 18 -10 9 -11 8 -5 -6z"/>
</g>
</svg>
